<svg xmlns="http://www.w3.org/2000/svg" width="48" height="48" viewBox="0 0 48 48">
    <g fill="none" fill-rule="evenodd">
        <g>
            <g>
                <g>
                    <g>
                        <path d="M0 0H48V48H0z" transform="translate(-933 -224) translate(165 216) translate(760) translate(8 8)"/>
                        <path fill="#FFF" fill-rule="nonzero" d="M25.578 40.906c1.39 0 2.485-.86 2.797-2.172l.594-2.609.343-.125 2.282 1.406c1.156.719 2.531.532 3.5-.453l2.203-2.187c.984-1 1.156-2.36.437-3.5L36.312 29l.126-.313 2.593-.625c1.313-.328 2.172-1.406 2.172-2.78v-3.063c0-1.36-.86-2.469-2.172-2.782l-2.578-.64-.125-.328 1.406-2.266c.735-1.125.547-2.484-.437-3.5L35.109 10.5c-.968-.969-2.343-1.156-3.5-.438l-2.28 1.391-.36-.14-.594-2.61c-.313-1.312-1.406-2.172-2.797-2.172h-3.172c-1.375 0-2.468.86-2.781 2.172l-.61 2.61-.359.14-2.265-1.39c-1.172-.72-2.547-.532-3.5.437l-2.204 2.203c-.984 1.016-1.156 2.375-.437 3.5l1.422 2.266-.14.328-2.579.64c-1.312.329-2.156 1.422-2.156 2.782v3.062c0 1.375.86 2.469 2.156 2.782l2.61.625.109.312-1.406 2.266c-.72 1.14-.547 2.5.437 3.5l2.203 2.187c.953.984 2.344 1.172 3.5.453L18.688 36l.328.125.609 2.61c.313 1.312 1.406 2.171 2.781 2.171h3.172zm-.5-3.203h-2.156c-.266 0-.39-.11-.422-.344l-.922-3.812c-1.031-.234-2.031-.64-2.875-1.188l-3.344 2.063c-.187.125-.375.11-.562-.063l-1.5-1.5c-.172-.172-.172-.359-.047-.562l2.063-3.344c-.485-.828-.922-1.812-1.141-2.828l-3.828-.906c-.235-.047-.36-.172-.36-.422v-2.094c0-.281.11-.39.36-.437l3.812-.907c.235-1.062.688-2.078 1.14-2.859l-2.062-3.328c-.125-.219-.14-.406.047-.578l1.5-1.469c.188-.188.36-.203.578-.078l3.329 2.047c.734-.485 1.843-.938 2.89-1.203l.922-3.813c.031-.234.156-.344.422-.344h2.156c.266 0 .375.11.422.344l.922 3.844c1.062.234 2.031.672 2.875 1.172l3.328-2.031c.219-.126.375-.11.578.062l1.5 1.484c.172.172.172.36.047.563L32.703 18.5c.438.781.89 1.797 1.125 2.844l3.828.922c.235.047.344.156.344.437v2.094c0 .25-.11.375-.344.422l-3.843.906c-.22 1.016-.641 2.016-1.141 2.828l2.062 3.344c.125.187.125.375-.062.547l-1.484 1.5c-.188.172-.376.187-.563.062l-3.344-2.047c-.86.547-1.765.938-2.86 1.188l-.921 3.812c-.047.235-.156.344-.422.344zM24 29.641c3.234 0 5.89-2.672 5.89-5.922 0-3.235-2.656-5.875-5.89-5.875-3.25 0-5.922 2.64-5.922 5.875 0 3.25 2.672 5.922 5.922 5.922zm0-2.922c-1.64 0-2.984-1.344-2.984-3 0-1.625 1.359-2.969 2.984-2.969 1.61 0 2.953 1.36 2.953 2.969 0 1.64-1.344 3-2.953 3z" transform="translate(-933 -224) translate(165 216) translate(760) translate(8 8)"/>
                    </g>
                </g>
            </g>
        </g>
    </g>
</svg>
