<svg xmlns="http://www.w3.org/2000/svg" xmlns:xlink="http://www.w3.org/1999/xlink" width="270" height="271" viewBox="0 0 270 271">
    <defs>
        <linearGradient id="dcnuqrcyvc" x1="0%" x2="100%" y1="0%" y2="100%">
            <stop offset="0%" stop-color="#F5F7FA" stop-opacity=".12"/>
            <stop offset="52.139%" stop-color="#F5F7FA" stop-opacity=".06"/>
            <stop offset="100%" stop-color="#F5F7FA" stop-opacity="0"/>
        </linearGradient>
        <filter id="opa1z87jsa" width="147.6%" height="147.6%" x="-19%" y="-19%" filterUnits="objectBoundingBox">
            <feOffset dx="8" dy="8" in="SourceAlpha" result="shadowOffsetOuter1"/>
            <feGaussianBlur in="shadowOffsetOuter1" result="shadowBlurOuter1" stdDeviation="12"/>
            <feComposite in="shadowBlurOuter1" in2="SourceAlpha" operator="out" result="shadowBlurOuter1"/>
            <feColorMatrix in="shadowBlurOuter1" result="shadowMatrixOuter1" values="0 0 0 0 0.0352941176 0 0 0 0 0.0509803922 0 0 0 0 0.0784313725 0 0 0 0.4 0"/>
            <feOffset dx="-4" dy="-4" in="SourceAlpha" result="shadowOffsetOuter2"/>
            <feGaussianBlur in="shadowOffsetOuter2" result="shadowBlurOuter2" stdDeviation="4"/>
            <feComposite in="shadowBlurOuter2" in2="SourceAlpha" operator="out" result="shadowBlurOuter2"/>
            <feColorMatrix in="shadowBlurOuter2" result="shadowMatrixOuter2" values="0 0 0 0 0.878431373 0 0 0 0 0.878431373 0 0 0 0 1 0 0 0 0.04 0"/>
            <feOffset dy="1" in="SourceAlpha" result="shadowOffsetOuter3"/>
            <feGaussianBlur in="shadowOffsetOuter3" result="shadowBlurOuter3" stdDeviation=".5"/>
            <feComposite in="shadowBlurOuter3" in2="SourceAlpha" operator="out" result="shadowBlurOuter3"/>
            <feColorMatrix in="shadowBlurOuter3" result="shadowMatrixOuter3" values="0 0 0 0 0.0352941176 0 0 0 0 0.0509803922 0 0 0 0 0.0784313725 0 0 0 0.4 0"/>
            <feMerge>
                <feMergeNode in="shadowMatrixOuter1"/>
                <feMergeNode in="shadowMatrixOuter2"/>
                <feMergeNode in="shadowMatrixOuter3"/>
            </feMerge>
        </filter>
        <path id="a7euc5vxvb" d="M84 0c46.392 0 84 37.608 84 84s-37.608 84-84 84S0 130.392 0 84 37.608 0 84 0zm35.283 38.5H47.25v19.211h51.077v52.822H47.25v19.208h72.033V38.5zM81.3 74.515H47.25v19.211H81.3V74.515z"/>
    </defs>
    <g fill="none" fill-rule="evenodd">
        <g>
            <g>
                <g>
                    <path d="M0 0H168V168H0z" transform="translate(-948 -3146) translate(0 2860) rotate(-17 1689.232 -3058.777)"/>
                    <g transform="translate(-948 -3146) translate(0 2860) rotate(-17 1689.232 -3058.777)">
                        <use fill="#000" filter="url(#opa1z87jsa)" xlink:href="#a7euc5vxvb"/>
                        <path fill="url(#dcnuqrcyvc)" stroke="#F5F7FA" stroke-linejoin="square" stroke-opacity=".06" d="M84 .5c23.058 0 43.933 9.346 59.043 24.457C158.153 40.067 167.5 60.942 167.5 84s-9.346 43.933-24.457 59.043C127.933 158.153 107.058 167.5 84 167.5s-43.933-9.346-59.043-24.457C9.847 127.933.5 107.058.5 84s9.346-43.933 24.457-59.043C40.067 9.847 60.942.5 84 .5zM119.783 38H46.75v20.211h51.077v51.822H46.75v20.208h73.033V38zM81.8 74.015H46.75v20.211H81.8V74.015z"/>
                    </g>
                </g>
            </g>
        </g>
    </g>
</svg>
