<svg xmlns="http://www.w3.org/2000/svg" width="48" height="48" viewBox="0 0 48 48">
    <g fill="none" fill-rule="evenodd">
        <g>
            <g>
                <g>
                    <path d="M0 0H48V48H0z" transform="translate(-173 -224) translate(165 216) translate(8 8)"/>
                    <path fill="#FFF" fill-rule="nonzero" d="M20.313 41.031L35.28 22.078c.282-.375.438-.719.438-1.094 0-.687-.532-1.187-1.25-1.187h-9.016l4.594-12.36c.656-1.796-1.203-2.75-2.36-1.28L12.72 25.124c-.281.36-.438.703-.438 1.094 0 .687.531 1.187 1.25 1.187h9.016L17.953 39.75c-.672 1.797 1.203 2.75 2.36 1.281zm2.234-7.328l4.172-8.984h-9.782l8.5-11.235-4.156 9h9.782l-8.516 11.22z" transform="translate(-173 -224) translate(165 216) translate(8 8)"/>
                </g>
            </g>
        </g>
    </g>
</svg>
